<?xml version="1.0" encoding="UTF-8" standalone="no"?>
<svg
   xmlns:dc="http://purl.org/dc/elements/1.1/"
   xmlns:cc="http://creativecommons.org/ns#"
   xmlns:rdf="http://www.w3.org/1999/02/22-rdf-syntax-ns#"
   xmlns:svg="http://www.w3.org/2000/svg"
   xmlns="http://www.w3.org/2000/svg"
   xmlns:sodipodi="http://sodipodi.sourceforge.net/DTD/sodipodi-0.dtd"
   xmlns:inkscape="http://www.inkscape.org/namespaces/inkscape"
   width="210mm"
   height="297mm"
   viewBox="0 0 210 297"
   version="1.1"
   id="svg47"
   inkscape:version="1.0.2 (e86c870879, 2021-01-15, custom)"
   sodipodi:docname="siggi_logo.svg">
  <defs
     id="defs41" />
  <sodipodi:namedview
     id="base"
     pagecolor="#ffffff"
     bordercolor="#666666"
     borderopacity="1.0"
     inkscape:pageopacity="0.0"
     inkscape:pageshadow="2"
     inkscape:zoom="2.8"
     inkscape:cx="430.0498"
     inkscape:cy="431.96255"
     inkscape:document-units="mm"
     inkscape:current-layer="layer1"
     inkscape:document-rotation="0"
     showgrid="false"
     inkscape:snap-global="true"
     showguides="true"
     inkscape:guide-bbox="true"
     inkscape:snap-object-midpoints="true"
     inkscape:snap-grids="true"
     inkscape:snap-text-baseline="false"
     inkscape:window-width="1619"
     inkscape:window-height="1003"
     inkscape:window-x="160"
     inkscape:window-y="0"
     inkscape:window-maximized="0"
     inkscape:snap-nodes="false"
     inkscape:snap-center="true">
    <sodipodi:guide
       position="158.49083,177.12962"
       orientation="0,-1"
       id="guide117" />
  </sodipodi:namedview>
  <metadata
     id="metadata44">
    <rdf:RDF>
      <cc:Work
         rdf:about="">
        <dc:format>image/svg+xml</dc:format>
        <dc:type
           rdf:resource="http://purl.org/dc/dcmitype/StillImage" />
        <dc:title />
      </cc:Work>
    </rdf:RDF>
  </metadata>
  <g
     inkscape:label="Layer 1"
     inkscape:groupmode="layer"
     id="layer1">
    <path
       id="path1018"
       style="fill:none;fill-opacity:0.57085;stroke:#000000;stroke-width:0.233297;stroke-opacity:1"
       d="m 83.207563,99.101654 c 5.942581,-11.622831 18.931697,-16.130109 31.985597,-16.130108 14.55944,3e-6 26.64082,6.133533 31.6783,19.793734"
       sodipodi:nodetypes="csc" />
    <path
       id="path1061"
       style="fill:none;fill-opacity:0.57085;stroke:#000000;stroke-width:0.999999;stroke-opacity:1"
       d="m 573.46319,473.25535 c -11.20431,72.09059 -55.42718,68.5838 -128.38327,68.5838 -75.47584,0 -143.63834,2.78033 -151.88169,-72.244"
       transform="scale(0.26458333)"
       sodipodi:nodetypes="csc" />
    <g
       id="g1007"
       style="fill:none;fill-opacity:0.97975707;stroke:#000000;stroke-opacity:0.97975707">
      <path
         style="fill:none;stroke:#000000;stroke-width:0.264583px;stroke-linecap:butt;stroke-linejoin:miter;stroke-opacity:0.97975707;fill-opacity:0.97975707"
         d="m 89.134383,107.70962 -0.53453,-6.81537 c 0,0 -4.14269,-2.138165 -7.483556,-1.737265 -3.34087,0.40091 -7.08264,2.138165 -7.21627,8.018095 -0.13364,5.87993 6.815372,7.75081 8.552622,8.68626 1.73725,0.93544 2.405434,3.20723 -2.138161,3.4745 -4.54358,0.26727 -6.147191,-2.00452 -6.147191,-2.00452 l -0.66818,5.07812 c 0,0 8.151727,4.81085 12.962586,1.73725 6.14309,-2.96776 5.2822,-9.81628 0.54554,-12.03772 -5.502715,-2.58071 -8.973915,-3.20838 -6.291845,-6.00297 2.672697,-0.80181 5.211755,-0.66817 8.418985,1.60362 z"
         id="path57"
         sodipodi:nodetypes="ccsssscccscc" />
      <path
         style="fill:none;stroke:#000000;stroke-width:0.264583px;stroke-linecap:butt;stroke-linejoin:miter;stroke-opacity:0.97975707;fill-opacity:0.97975707"
         d="m 94.078877,112.78774 h 10.289883 l -1.87089,-2.27179 c 0,0 4.54358,-7.88445 -2.539063,-7.75082 -7.08264,0.13364 -5.87993,3.47451 -3.87541,7.75082 -0.75727,0.8909 -2.00452,2.27179 -2.00452,2.27179 z"
         id="path59"
         sodipodi:nodetypes="cccscc" />
      <path
         style="fill:none;stroke:#000000;stroke-width:0.264583px;stroke-linecap:butt;stroke-linejoin:miter;stroke-opacity:0.97975707;fill-opacity:0.97975707"
         d="M 93.143427,113.58955 H 105.3042 c 0,0 7.88445,12.6953 -4.94449,11.62622 -12.828943,-1.06908 -9.621703,-4.54358 -7.216283,-11.62622 z"
         id="path61" />
      <path
         style="fill:none;stroke:#000000;stroke-width:0.264583px;stroke-linecap:butt;stroke-linejoin:miter;stroke-opacity:0.97975707;fill-opacity:0.97975707"
         d="m 117.06405,113.58954 c 0,0 -3.60813,-1.06908 -6.41446,1.87089 -2.80634,2.93996 -4.14268,8.15172 0.4009,9.2208 4.54358,1.06907 7.08264,-0.53454 7.08264,-0.53454 0,0 1.73725,4.00904 -2.53906,4.14267 -4.27631,0.13364 -6.94901,-1.06907 -6.94901,-1.06907 l -1.33634,4.00904 c 0,0 8.28535,3.87541 13.63074,0.66817 5.34539,-3.20723 3.0736,-6.41446 2.40543,-9.48807 -0.66818,-3.07359 -2.93997,-8.28535 -6.28084,-8.81989 z"
         id="path71"
         sodipodi:nodetypes="csscsccssc" />
      <path
         style="fill:none;stroke:#000000;stroke-width:0.264583px;stroke-linecap:butt;stroke-linejoin:miter;stroke-opacity:0.97975707;fill-opacity:0.97975707"
         d="m 142.82882,112.75661 h 10.28988 l -1.87089,-2.27179 c 0,0 4.54358,-7.88445 -2.53906,-7.75082 -7.08264,0.13364 -5.87993,3.47451 -3.87541,7.75082 -0.75727,0.8909 -2.00452,2.27179 -2.00452,2.27179 z"
         id="path59-3"
         sodipodi:nodetypes="cccscc" />
      <path
         style="fill:none;stroke:#000000;stroke-width:0.264583px;stroke-linecap:butt;stroke-linejoin:miter;stroke-opacity:0.97975707;fill-opacity:0.97975707"
         d="m 141.89337,113.55842 h 12.16077 c 0,0 7.88445,12.6953 -4.94449,11.62622 -12.82894,-1.06908 -9.6217,-4.54358 -7.21628,-11.62622 z"
         id="path61-5" />
      <path
         style="fill:none;stroke:#000000;stroke-width:0.264583px;stroke-linecap:butt;stroke-linejoin:miter;stroke-opacity:0.97975707;fill-opacity:0.97975707"
         d="m 133.23386,113.85681 c 0,0 -3.60813,-1.06908 -6.41446,1.87089 -2.80634,2.93996 -4.14268,8.15172 0.4009,9.2208 4.54358,1.06907 7.08264,-0.53454 7.08264,-0.53454 0,0 1.73725,4.00904 -2.53906,4.14267 -4.27631,0.13364 -6.94901,-1.06907 -6.94901,-1.06907 l -1.33634,4.00904 c 0,0 8.28535,3.87541 13.63074,0.66817 5.34539,-3.20723 3.0736,-6.41446 2.40543,-9.48807 -0.66818,-3.07359 -2.93997,-8.28535 -6.28084,-8.81989 z"
         id="path998"
         sodipodi:nodetypes="csscsccssc" />
    </g>
  </g>
</svg>
